inDegrees=yes
name=ik_S49_A03_T01
DataType=double
version=3
OpenSimVersion=4.3-2021-08-27-4bc7ad9
endheader
time	pelvis_tilt	pelvis_list	pelvis_rotation	pelvis_tx	pelvis_ty	pelvis_tz	hip_flexion_r	hip_adduction_r	hip_rotation_r	knee_angle_r	knee_angle_r_beta	ankle_angle_r	subtalar_angle_r	mtp_angle_r	hip_flexion_l	hip_adduction_l	hip_rotation_l	knee_angle_l	knee_angle_l_beta	ankle_angle_l	subtalar_angle_l	mtp_angle_l	lumbar_extension	lumbar_bending	lumbar_rotation	arm_flex_r	arm_add_r	arm_rot_r	elbow_flex_r	pro_sup_r	wrist_flex_r	wrist_dev_r	arm_flex_l	arm_add_l	arm_rot_l	elbow_flex_l	pro_sup_l	wrist_flex_l	wrist_dev_l
11.83999999999984	-1.148258154399951	3.280330010667314	98.91264489791057	0	0.9399999999999999	0	20.97716265384783	-3.207368226011998	-4.696094823532497	11.604484601603	0.2025364642949547	0	0	0	-3.080521249975411	0.786453792291811	-10.37824455633431	0.706047854739403	0.01232285974184523	0	0	0	0	0	0	31.58943366302535	-31.5894336630253	4.373931045320949	76.07393411076166	85.62606919965842	0	0	31.58943366302535	-31.5894336630253	4.373931045320949	76.07393411076166	85.62606919954214	0	0
11.85999999999984	-1.319177540991419	3.170301638428886	99.15672520815248	0	0.9399999999999999	0	21.21106011896549	-3.039992263381992	-4.992184783226936	7.519991287164705	0.1312486076823105	0	0	0	-3.836703351749409	1.085096513948573	-10.47116650460372	0.9051283205887436	0.01579746934732035	0	0	0	0	0	0	31.5944886107225	-31.59448861072246	4.374396569322823	76.08062753784868	85.62560367568047	0	0	31.5944886107225	-31.59448861072246	4.374396569322823	76.08062753784868	85.62560367556441	0	0
11.87999999999984	-1.501978956294388	3.055199335301574	99.42689180359083	0	0.9399999999999999	0	21.49042872300868	-3.107002455482563	-5.433829960077538	3.680338263676549	0.06423402028828701	0	0	0	-4.557411272566683	1.325347749016014	-10.71035624594394	1.27610900653658	0.02227230377841717	0	0	0	0	0	0	31.59925871263921	-31.59925871263916	4.374835847935301	76.08694354551145	85.62516439709057	0	0	31.59925871263921	-31.59925871263916	4.374835847935301	76.08694354551145	85.62516439697458	0	0
11.89999999999984	-1.638181426566979	2.935401835583795	99.71408395613787	0	0.9399999999999999	0	21.75198954777128	-3.114715726711467	-6.679925624550459	0.5161529053638902	0.009008567642334585	0	0	0	-5.185414011644601	1.616593686218071	-10.60970420255224	0.6774475902807229	0.01182369096010015	0	0	0	0	0	0	31.60443502793711	-31.60443502793706	4.37531601137984	76.09384870714419	85.62468423367082	0	0	31.60443502793711	-31.60443502793706	4.37531601137984	76.09384870714419	85.62468423355494	0	0
11.91999999999983	-1.692023750994541	2.881710202737302	99.85895558834528	0	0.9399999999999999	0	21.77202206977459	-3.100748917697625	-6.894932619142942	-2.633443657978241	-0.04596226249748374	0	0	0	-5.78983545232639	1.957488651241231	-10.16987232868353	2.140197411486531	0.03735349147309987	0	0	0	0	0	0	31.61091623646616	-31.61091623646612	4.375917005889227	76.10249134476207	85.6240832391925	0	0	31.61091623646616	-31.61091623646612	4.375917005889227	76.10249134476207	85.62408323907671	0	0
11.93999999999983	-1.685354215668637	2.868501038958229	99.84920604747204	0	0.9399999999999999	0	21.83020290286222	-2.570823946791612	-8.867691087916437	-4.294254721228089	-0.07494888380474139	0	0	0	-6.520891390589726	2.207186839549945	-9.867172756625335	2.435421924196991	0.04250613125249325	0	0	0	0	0	0	31.59832369295609	-31.59832369295604	4.375029631848539	76.08983305834236	85.62497061318942	0	0	31.59832369295609	-31.59832369295604	4.375029631848539	76.08983305834236	85.62497061307347	0	0
11.95999999999983	-1.691267389223333	2.871853583408338	99.86286457185543	0	0.9399999999999999	0	21.7896650138576	-2.53702476805184	-9.000855084686043	-4.936482830826502	-0.08615787886609268	0	0	0	-7.270896958642036	2.231098820291643	-10.49765774237449	3.118821305786515	0.05443370056732356	0	0	0	0	0	0	31.60136127922835	-31.60136127922831	4.375311972194559	76.09389356784818	85.62468827285795	0	0	31.60136127922835	-31.60136127922831	4.375311972194559	76.09389356784818	85.62468827274206	0	0
11.97999999999983	-1.930530991905128	2.851248307115564	100.6696259252251	0	0.9399999999999999	0	22.59067588002391	-2.372610159059371	-9.101647423430986	-4.662894374390579	-0.08138285950583676	0	0	0	-8.018140355696078	2.261878690346203	-11.13421465593177	4.088004251680148	0.07134913402734551	0	0	0	0	0	0	31.60418236211629	-31.60418236211624	4.37557453187681	76.09766970236744	85.62442571318925	0	0	31.60418236211629	-31.60418236211624	4.37557453187681	76.09766970236744	85.62442571307342	0	0
